<?xml version="1.0" encoding="utf-8"?>
<!-- Svg Vector Icons : http://www.onlinewebfonts.com/icon -->
<!DOCTYPE svg PUBLIC "-//W3C//DTD SVG 1.1//EN" "http://www.w3.org/Graphics/SVG/1.1/DTD/svg11.dtd">
<svg version="1.1" xmlns="http://www.w3.org/2000/svg" xmlns:xlink="http://www.w3.org/1999/xlink" x="0px" y="0px" viewBox="0 0 1000 1000" enable-background="new 0 0 1000 1000" xml:space="preserve">
<metadata> Svg Vector Icons : http://www.onlinewebfonts.com/icon </metadata>
<g><path d="M977.1,848H22.9c-7.1,0-12.9-5.8-12.9-12.9v-25.8c0-7.1,5.8-12.9,12.9-12.9h954.2c7.1,0,12.9,5.8,12.9,12.9v25.8C990,842.2,984.2,848,977.1,848L977.1,848z M977.1,744.9H22.9c-7.1,0-12.9-5.8-12.9-12.9v-25.8c0-7.1,5.8-12.9,12.9-12.9h38.7c0-206.9,143.6-379.9,336.5-425.8c-0.5-4.1-1.2-8.1-1.2-12.4C396.8,198.2,443,152,500,152c57,0,103.2,46.2,103.2,103.1c0,4.2-0.8,8.3-1.2,12.4c192.9,46,336.5,218.9,336.5,425.8h38.7c7.1,0,12.9,5.8,12.9,12.9V732C990,739.1,984.2,744.9,977.1,744.9L977.1,744.9z M500,203.5c-28.5,0-51.6,23.1-51.6,51.6c0,1.1,0.3,2.2,0.3,3.2c16.8-2,33.9-3.2,51.3-3.2c17.4,0,34.4,1.3,51.3,3.2c0.1-1.1,0.3-2.1,0.3-3.2C551.6,226.6,528.5,203.5,500,203.5L500,203.5z M500,306.7c-213.6,0-386.8,173.1-386.8,386.7h773.7C886.8,479.8,713.6,306.7,500,306.7L500,306.7z M360.4,409c13.2,11.3,23.5,25.6,29.7,42.2c-55.6,30.6-101.6,76.6-132.2,132.2c-16.6-6.2-31-16.5-42.2-29.7C250,493.5,300,443.4,360.4,409L360.4,409z"/></g>
</svg>