<?xml version="1.0" encoding="utf-8"?>
<!-- Svg Vector Icons : http://www.onlinewebfonts.com/icon -->
<!DOCTYPE svg PUBLIC "-//W3C//DTD SVG 1.1//EN" "http://www.w3.org/Graphics/SVG/1.1/DTD/svg11.dtd">
<svg version="1.1" xmlns="http://www.w3.org/2000/svg" xmlns:xlink="http://www.w3.org/1999/xlink" x="0px" y="0px" viewBox="0 0 1000 1000" enable-background="new 0 0 1000 1000" xml:space="preserve">
<metadata> Svg Vector Icons : http://www.onlinewebfonts.com/icon </metadata>
<g><g transform="translate(0.000000,511.000000) scale(0.100000,-0.100000)"><path d="M4636.4,3307.7c-761.8-93.8-1441.3-430.7-1956.2-972.3c-446-465.1-733.1-1031.7-849.8-1676.7c-47.9-266-47.9-824.9,0-1091c122.5-679.5,419.2-1242.2,911.1-1732.2c386.6-386.6,838.3-656.5,1347.5-803.9c1850.9-539.8,3736.2,631.6,4080.7,2536.1c47.9,266.1,47.9,825,0,1091c-122.5,669.9-417.3,1238.4-891.9,1713.1c-488.1,490-1064.2,792.4-1732.2,909.2C5336.9,3319.1,4833.5,3332.5,4636.4,3307.7z M5296.7,2352.5c501.5-72.7,934-289,1293.9-648.8c306.3-306.2,499.6-648.9,606.8-1071.9c44-178,49.8-241.2,49.8-518.7c0-266-7.7-344.5-45.9-497.6c-109.1-449.8-285.2-763.7-612.5-1091c-327.3-327.3-641.2-503.4-1091-612.5c-153.1-38.3-231.6-45.9-497.7-45.9c-277.5,0-340.7,5.7-518.7,49.8c-423,107.2-765.6,300.5-1071.9,606.7c-891.9,890-891.9,2291.1,0,3181.1c352.2,354.1,792.4,576.1,1274.8,646.9C4845,2373.6,5137.9,2373.6,5296.7,2352.5z"/><path d="M4705.3,2122.9c-440.2-70.8-813.5-260.3-1133.1-581.9c-271.8-271.8-442.1-562.7-539.8-928.3c-42.1-162.7-47.9-220.1-47.9-499.6c0-279.4,5.7-336.9,47.9-499.6c97.6-365.6,268-656.5,539.8-928.3c271.8-271.8,562.7-442.2,928.3-539.8c162.7-42.1,220.1-47.9,499.6-47.9c283.3,0,335,3.8,505.3,51.7c369.4,99.5,650.8,264.1,922.6,535.9c271.8,271.8,436.4,553.1,535.9,922.6c47.8,170.3,51.7,222,51.7,505.3c0,279.5-5.7,336.9-47.9,499.6c-97.6,365.6-268,656.5-539.8,928.3c-384.7,384.7-823,576.1-1360.9,591.4C4931.1,2136.3,4766.5,2132.4,4705.3,2122.9z"/><path d="M9641.6,3012.9c-225.8-158.9-379-465.1-461.3-920.6c-51.7-285.2-47.9-987.7,7.6-1290.1c49.8-277.5,118.7-499.6,220.1-708.2c61.3-126.3,80.4-189.5,86.1-287.1c3.8-68.9-36.4-643.1-90-1274.7c-53.6-633.6-97.6-1186.7-97.6-1230.7c0-134,38.3-155,287.1-155c199.1,0,214.4,1.9,258.4,47.9l47.9,45.9V128.4c0,2773.4-1.9,2890.2-34.5,2918.9C9812,3097.1,9743,3085.6,9641.6,3012.9z"/><path d="M123.1,2922.9c-17.2-17.2-23-252.6-23-941.7c0-1070-11.5-1008.7,187.6-1079.5c155-57.4,176.1-93.8,176.1-304.3c0-91.9-30.6-847.9-65.1-1680.5c-68.9-1604-68.9-1590.6,17.2-1625c40.2-15.3,400-15.3,440.2,0c86.1,34.5,86.1,23,17.2,1625C798.7,679.7,796.8,758.2,837,815.6c17.2,23,82.3,61.3,145.5,84.2c201,74.6,189.5,9.6,185.7,1087.2c-5.7,857.5-7.7,928.3-40.2,947.5c-23,15.3-42.1,15.3-67,0c-28.7-19.1-32.5-78.5-42.1-656.5c-7.7-535.9-13.4-637.4-38.3-652.7c-15.3-9.6-32.5-19.1-38.3-19.1c-5.7,0-23,9.6-38.3,19.1c-24.9,15.3-30.6,116.8-38.3,652.7c-9.6,578-13.4,637.4-42.1,656.5c-24.9,15.3-44,15.3-67,0c-30.6-19.1-34.4-78.5-44-656.5c-7.7-535.9-13.4-637.4-38.3-652.7c-36.4-23-40.2-23-76.6,0c-24.9,15.3-30.6,116.8-38.3,652.7c-9.6,578-13.4,637.4-44,656.5c-23,15.3-42.1,15.3-67,0c-28.7-19.1-32.5-78.5-42.1-656.5c-7.7-535.9-13.4-637.4-38.3-652.7c-40.2-24.9-49.8-23-84.2,11.5c-26.8,24.9-30.6,111-30.6,646.9c0,635.5-3.8,662.3-76.6,662.3C159.5,2945.9,136.5,2936.3,123.1,2922.9z"/></g></g>
</svg>