<?xml version="1.0" encoding="utf-8"?>
<!-- Svg Vector Icons : http://www.onlinewebfonts.com/icon -->
<!DOCTYPE svg PUBLIC "-//W3C//DTD SVG 1.1//EN" "http://www.w3.org/Graphics/SVG/1.1/DTD/svg11.dtd">
<svg version="1.1" xmlns="http://www.w3.org/2000/svg" xmlns:xlink="http://www.w3.org/1999/xlink" x="0px" y="0px" viewBox="0 0 1000 1000" enable-background="new 0 0 1000 1000" xml:space="preserve">
<metadata> Svg Vector Icons : http://www.onlinewebfonts.com/icon </metadata>
<g><g><path d="M45,523.3c-6.4,0-11.7,5.2-11.7,11.7v280c0,19.3,15.7,35,35,35h233.3c6.4,0,11.7-5.2,11.7-11.7c0-6.4-5.2-11.7-11.7-11.7H68.3c-6.4,0-11.7-5.2-11.7-11.7V535C56.7,528.6,51.4,523.3,45,523.3z M955,523.3c-6.4,0-11.7,5.2-11.7,11.7v280c0,6.4-5.2,11.7-11.7,11.7h-490c-6.4,0-11.7,5.2-11.7,11.7c0,6.4,5.2,11.7,11.7,11.7h490c19.3,0,35-15.7,35-35V535C966.7,528.6,961.4,523.3,955,523.3z M430,161.7c0,6.4,5.2,11.7,11.7,11.7h490c6.4,0,11.7,5.2,11.7,11.7v209c0,6.4,5.2,11.7,11.7,11.7c6.4,0,11.7-5.2,11.7-11.7V185c0-19.3-15.7-35-35-35h-490C435.2,150,430,155.2,430,161.7z M68.3,150c-19.3,0-35,15.7-35,35v209c0,6.4,5.2,11.7,11.7,11.7s11.7-5.2,11.7-11.7V185c0-6.4,5.2-11.7,11.7-11.7h233.3c6.4,0,11.7-5.2,11.7-11.7s-5.2-11.7-11.7-11.7H68.3z M978.3,452.4h-476c9.3-4.1,17.3-8.9,23-14.6c35.3-35.3,35.3-92.6,0-127.9c-34.2-34.2-93.7-34.2-127.9,0c-5.5,5.5-10.1,13.1-14.1,21.9V138.3c0-6.4-5.2-11.7-11.7-11.7c-6.4,0-11.7,5.2-11.7,11.7v308.6c-39.7-16.4-109.7-50-124-79c-9.3-18.9-10.8-40.2-4-60.1c6.7-19.9,20.8-36,39.6-45.3c5.8-2.9,8.1-9.8,5.3-15.6c-2.9-5.8-9.8-8.2-15.6-5.3c-24.4,12.1-42.7,33-51.4,58.8s-6.9,53.5,5.2,77.9c14.1,28.5,61.4,55.8,99.8,74.1H21.7c-6.4,0-11.7,5.2-11.7,11.7s5.2,11.7,11.7,11.7h218.1c-9,4.1-16.8,8.8-22.4,14.3c-35.3,35.3-35.3,92.6,0,127.9c17.1,17.1,39.8,26.5,63.9,26.5s46.9-9.4,63.9-26.5c5.8-5.8,10.6-14,14.8-23.5v267.2c0,6.4,5.2,11.7,11.7,11.7c6.4,0,11.7-5.2,11.7-11.7V481.2c39.9,16.5,109,49.9,123.3,78.7c9.3,18.9,10.8,40.2,4,60.1c-6.7,19.9-20.8,36-39.6,45.3c-5.8,2.9-8.1,9.8-5.3,15.6c2,4.1,6.2,6.5,10.5,6.5c1.7,0,3.5-0.4,5.2-1.2c24.4-12.1,42.7-33,51.4-58.8c8.7-25.8,6.9-53.5-5.2-77.9c-14-28.4-60.9-55.5-99.2-73.9h550c6.4,0,11.7-5.2,11.7-11.7S984.8,452.4,978.3,452.4z M413.9,326.4c12.7-12.7,29.5-19.6,47.4-19.6s34.8,7,47.4,19.6c26.2,26.2,26.2,68.7,0,94.9c-19.9,19.9-88.4,28-125.2,30.3C386.2,408.1,395.7,344.6,413.9,326.4L413.9,326.4z M328.7,601.4c-25.3,25.3-69.5,25.3-94.9,0c-26.2-26.2-26.2-68.7,0-94.9c19.9-19.9,88.4-28,125.2-30.3C356.4,519.7,346.9,583.2,328.7,601.4z"/></g></g>
</svg>