<?xml version="1.0" encoding="utf-8"?>
<!-- Svg Vector Icons : http://www.onlinewebfonts.com/icon -->
<!DOCTYPE svg PUBLIC "-//W3C//DTD SVG 1.1//EN" "http://www.w3.org/Graphics/SVG/1.1/DTD/svg11.dtd">
<svg version="1.1" xmlns="http://www.w3.org/2000/svg" xmlns:xlink="http://www.w3.org/1999/xlink" x="0px" y="0px" viewBox="0 0 1000 1000" enable-background="new 0 0 1000 1000" xml:space="preserve">
<metadata> Svg Vector Icons : http://www.onlinewebfonts.com/icon </metadata>
<g><g><path d="M769.5,657.1c-16.7-37.8-54.5-64.4-98.4-64.4c-36.6,0-69,18.5-88.4,46.5c-71.4-29.9-151-83.9-211.1-181.8c25.1-19.7,41.5-50,41.5-84.3c0-58-46.2-105.1-103.7-107.3C364.5,221.5,636.2,10,812.1,10c40,0,75.1,10.9,101.5,37.3C1051.1,184.8,825,568.3,769.5,657.1z M567.4,672.7c-8-8-17.6-15.1-28.5-20.6c-57-29-129.3-78.1-178.5-156c-5.3-8.4-11.3-15.9-17.8-22.2c-11.7,4.3-24.2,7.1-37.3,7.1c-19.1,0-36.7-5.4-52.3-14.1c-1.7,1.6-3.4,3.2-5.1,5c-36,39.8-74.3,98.1-85.8,173.4c-9.4,54.4-70.9,120.5-108.7,120.5c-37.8,0,118.1,104,174.9-165.4c18.9-68.5,108.7-70.1,70.9-3.1C261.4,664,169.3,817.6,65.3,869.6c-104,52,179.6-54.4,281.2-230.4c18.9-41.4,59.1,8.4,30.7,36.7c-28.4,28.3-154.5,132.7-162.3,206.9s20.5-74.6,233.2-178.6c37.8-18.9,66.2,33.1,14.2,61.4C410.3,794,238.9,897.9,266.7,983c13.6,37.8,42-87.4,176.7-132.3c58.4-19.5,101-52.7,130.4-84.2c2.6-2.7,4.7-5.5,6.7-8.4c-10.7-16.7-17.1-36.4-17.1-57.7C563.4,690.8,565.1,681.6,567.4,672.7z M305.3,433.2c8.2,0,16-1.7,23.1-4.6c3.7-1.5,7.3-3.5,10.5-5.7c3.4-2.3,6.5-5,9.3-7.9c10.5-10.8,17-25.5,17-41.8c0-31.7-24.7-57.5-55.9-59.6c-1.4-0.1-2.7-0.4-4.1-0.4c-2.8,0-5.5,0.5-8.3,0.8c-4,0.5-7.9,1.5-11.6,2.8c-23.3,8.2-40.1,30.2-40.1,56.4C245.3,406.3,272.2,433.2,305.3,433.2z M729.4,686.8c-1-4.3-2.5-8.4-4.4-12.2c-9.7-20.1-30.1-34.1-53.9-34.1c-15.6,0-29.8,6.1-40.4,15.9c-3.1,2.9-6,6-8.5,9.5c-2.3,3.3-4.4,6.8-6,10.6c-3.2,7.3-5,15.4-5,23.9c0,33.1,26.9,60,60,60c33.2,0,60-26.8,60-60c0-0.5-0.1-1.1-0.2-1.6C730.8,694.7,730.3,690.7,729.4,686.8z"/></g><g></g><g></g><g></g><g></g><g></g><g></g><g></g><g></g><g></g><g></g><g></g><g></g><g></g><g></g><g></g></g>
</svg>